{
	"asset":{
		"version":"2.0",
		"generator":"Created using the official Cinema 4D glTF Exporter 1.000x284978"
	},
	"scenes":[{
		"nodes":[0]
	}],
	"nodes":[{
		"name":"logo",
		"translation":[4.656336784362793,
		-4.78752326965332,
		0.0],
		"rotation":[0.0,
		0.0,
		0.0,
		-1.0],
		"scale":[1.0,
		1.0,
		1.0],
		"children":[1,
		2]
	},
	{
		"name":"Extrude",
		"translation":[-0.6539018154144287,
		0.9490084052085877,
		-1.0048941373825074],
		"mesh":0,
		"rotation":[0.0,
		0.0,
		0.0,
		-1.0],
		"scale":[1.0,
		1.0,
		1.0]
	},
	{
		"name":"Extrude.1",
		"translation":[0.6539018154144287,
		-0.9490084052085877,
		0.0],
		"mesh":1,
		"rotation":[0.0,
		0.0,
		0.0,
		-1.0],
		"scale":[1.0,
		1.0,
		1.0]
	}],
	"meshes":[{
		"name":"Extrude",
		"primitives":[{
			"attributes":{
				"POSITION":1,
				"NORMAL":2,
				"TEXCOORD_0":3
			},
			"indices":0
		}]
	},
	{
		"name":"Extrude.1",
		"primitives":[{
			"attributes":{
				"POSITION":5,
				"NORMAL":6,
				"TEXCOORD_0":7
			},
			"indices":4
		}]
	}],
	"accessors":[{
		"bufferView":0,
		"count":720,
		"type":"SCALAR",
		"componentType":5123,
		"byteOffset":0,
		"min":[0],
		"max":[245]
	},
	{
		"bufferView":1,
		"count":246,
		"type":"VEC3",
		"componentType":5126,
		"byteOffset":0,
		"min":[-1.1614543199539185,
		-1.5797494649887086,
		0.0],
		"max":[1.1492953300476075,
		1.5797494649887086,
		1.0]
	},
	{
		"bufferView":1,
		"count":246,
		"type":"VEC3",
		"componentType":5126,
		"byteOffset":12,
		"min":[-0.999952495098114,
		-0.9890183210372925,
		-1.0],
		"max":[1.0,
		0.9795883893966675,
		1.0]
	},
	{
		"bufferView":1,
		"count":246,
		"type":"VEC2",
		"componentType":5126,
		"byteOffset":24,
		"min":[0.0,
		0.0],
		"max":[1.0,
		1.0]
	},
	{
		"bufferView":2,
		"count":1644,
		"type":"SCALAR",
		"componentType":5123,
		"byteOffset":0,
		"min":[0],
		"max":[555]
	},
	{
		"bufferView":3,
		"count":556,
		"type":"VEC3",
		"componentType":5126,
		"byteOffset":0,
		"min":[-2.3111019134521486,
		-2.5509471893310549,
		-1.0],
		"max":[2.395561695098877,
		2.546891450881958,
		0.0]
	},
	{
		"bufferView":3,
		"count":556,
		"type":"VEC3",
		"componentType":5126,
		"byteOffset":12,
		"min":[-1.0,
		-0.999993085861206,
		-1.0],
		"max":[1.0,
		0.9999985098838806,
		1.0]
	},
	{
		"bufferView":3,
		"count":556,
		"type":"VEC2",
		"componentType":5126,
		"byteOffset":24,
		"min":[0.0,
		0.0],
		"max":[1.0,
		1.0]
	}],
	"bufferViews":[{
		"buffer":0,
		"byteOffset":0,
		"byteLength":1440,
		"target":34963
	},
	{
		"buffer":0,
		"byteOffset":1440,
		"byteLength":7872,
		"target":34962,
		"byteStride":32
	},
	{
		"buffer":1,
		"byteOffset":0,
		"byteLength":3288,
		"target":34963
	},
	{
		"buffer":1,
		"byteOffset":3288,
		"byteLength":17792,
		"target":34962,
		"byteStride":32
	}],
	"buffers":[{
		"uri":"data:application/octet-stream;base64,",
		"byteLength":9312
	},
	{
		"uri":"data:application/octet-stream;base64,",
		"byteLength":21080
	}]
}