{"asset":{"version":"2.0","generator":"Codex static-runtime extraction","extras":{"author":"UJWAL (https://sketchfab.com/Ujwal-Chauhan)","license":"CC-BY-4.0 (http://creativecommons.org/licenses/by/4.0/)","source":"https://sketchfab.com/3d-models/water-waves-142c2596d1944cd0bf4fc1f490c4c248","title":"water waves"}},"scene":0,"scenes":[{"name":"Water waves","nodes":[0]}],"nodes":[{"name":"WaterSurface","mesh":0}],"meshes":[{"name":"WaterSurface","primitives":[{"attributes":{"POSITION":0,"NORMAL":1},"indices":2}]}],"buffers":[{"uri":"scene.bin","byteLength":311064}],"bufferViews":[{"buffer":0,"byteOffset":0,"byteLength":153600,"target":34963,"name":"indices"},{"buffer":0,"byteOffset":153600,"byteLength":78732,"target":34962,"name":"positions"},{"buffer":0,"byteOffset":232332,"byteLength":78732,"target":34962,"name":"normals"}],"accessors":[{"bufferView":1,"componentType":5126,"count":6561,"type":"VEC3","min":[-428.64892578125,-33.09067153930664,-421.4026794433594],"max":[418.2406005859375,32.620460510253906,417.6739501953125]},{"bufferView":2,"componentType":5126,"count":6561,"type":"VEC3","min":[-0.9573251605033875,-0.945924699306488,-0.9429275393486023],"max":[0.9720057845115662,0.9999942779541016,0.9892981052398682]},{"bufferView":0,"componentType":5125,"count":38400,"type":"SCALAR"}]}