{
  "accessors": [
    {
      "bufferView": 1,
      "componentType": 5126,
      "count": 39746,
      "max": [
        112.41989135742188,
        135.83978271484375,
        6.0
      ],
      "min": [
        -112.41989135742188,
        -89.0,
        -15.141483306884766
      ],
      "type": "VEC3"
    },
    {
      "bufferView": 1,
      "byteOffset": 476952,
      "componentType": 5126,
      "count": 39746,
      "max": [
        1.0,
        0.9994415640830994,
        1.0
      ],
      "min": [
        -0.9999999403953552,
        -0.9994415640830994,
        -1.0
      ],
      "type": "VEC3"
    },
    {
      "bufferView": 2,
      "componentType": 5126,
      "count": 39746,
      "max": [
        0.12941177189350128,
        0.6470588445663452,
        0.7098039388656616,
        1.0
      ],
      "min": [
        0.12941177189350128,
        0.6470588445663452,
        0.7098039388656616,
        1.0
      ],
      "type": "VEC4"
    },
    {
      "bufferView": 0,
      "componentType": 5125,
      "count": 236748,
      "type": "SCALAR"
    }
  ],
  "asset": {
    "extras": {
      "author": "Calfan (https://sketchfab.com/Calfan)",
      "license": "CC-BY-NC-4.0 (http://creativecommons.org/licenses/by-nc/4.0/)",
      "source": "https://sketchfab.com/3d-models/water-droplet-d9166374296a47a79cb4fe14f5a0d9cb",
      "title": "Water Droplet"
    },
    "generator": "Sketchfab-12.68.0",
    "version": "2.0"
  },
  "bufferViews": [
    {
      "buffer": 0,
      "byteLength": 946992,
      "name": "floatBufferViews",
      "target": 34963
    },
    {
      "buffer": 0,
      "byteLength": 953904,
      "byteOffset": 946992,
      "byteStride": 12,
      "name": "floatBufferViews",
      "target": 34962
    },
    {
      "buffer": 0,
      "byteLength": 635936,
      "byteOffset": 1900896,
      "byteStride": 16,
      "name": "floatBufferViews",
      "target": 34962
    }
  ],
  "buffers": [
    {
      "byteLength": 2536832,
      "uri": "scene.bin"
    }
  ],
  "extensionsRequired": [
    "KHR_materials_pbrSpecularGlossiness"
  ],
  "extensionsUsed": [
    "KHR_materials_pbrSpecularGlossiness"
  ],
  "materials": [
    {
      "alphaMode": "BLEND",
      "doubleSided": true,
      "extensions": {
        "KHR_materials_pbrSpecularGlossiness": {
          "diffuseFactor": [
            0.518525555766673,
            0.518525555766673,
            0.518525555766673,
            0.3117993539806194
          ],
          "glossinessFactor": 1.0,
          "specularFactor": [
            1.0,
            1.0,
            1.0
          ]
        }
      },
      "name": "Scene_-_Root"
    }
  ],
  "meshes": [
    {
      "name": "Object_0",
      "primitives": [
        {
          "attributes": {
            "COLOR_0": 2,
            "NORMAL": 1,
            "POSITION": 0
          },
          "indices": 3,
          "material": 0,
          "mode": 4
        }
      ]
    }
  ],
  "nodes": [
    {
      "children": [
        1
      ],
      "matrix": [
        1.0,
        0.0,
        0.0,
        0.0,
        0.0,
        2.220446049250313e-16,
        -1.0,
        0.0,
        0.0,
        1.0,
        2.220446049250313e-16,
        0.0,
        0.0,
        0.0,
        0.0,
        1.0
      ],
      "name": "Sketchfab_model"
    },
    {
      "children": [
        2
      ],
      "name": "Water.stl.cleaner.materialmerger.gles"
    },
    {
      "mesh": 0,
      "name": "Object_2"
    }
  ],
  "scene": 0,
  "scenes": [
    {
      "name": "Sketchfab_Scene",
      "nodes": [
        0
      ]
    }
  ]
}
